<svg width="22" height="14" viewBox="0 0 22 14" fill="none" xmlns="http://www.w3.org/2000/svg">
<path d="M1 2.42857C2.66667 0.52381 4.33333 0.52381 6 2.42857C7.66667 4.33333 9.33333 4.33333 11 2.42857C12.6667 0.52381 14.3333 0.52381 16 2.42857C17.6667 4.33333 19.3333 4.33333 21 2.42857" stroke="#91A5B0" stroke-width="1.8" stroke-linecap="round"/>
<path d="M1 6.42856C2.66667 4.52379 4.33333 4.52379 6 6.42856C7.66667 8.33332 9.33333 8.33332 11 6.42856C12.6667 4.52379 14.3333 4.52379 16 6.42856C17.6667 8.33332 19.3333 8.33332 21 6.42856" stroke="#91A5B0" stroke-width="1.8" stroke-linecap="round"/>
<path d="M1 10.4286C2.66667 8.52382 4.33333 8.52382 6 10.4286C7.66667 12.3333 9.33333 12.3333 11 10.4286C12.6667 8.52382 14.3333 8.52382 16 10.4286C17.6667 12.3333 19.3333 12.3333 21 10.4286" stroke="#91A5B0" stroke-width="1.8" stroke-linecap="round"/>
<path d="M21 10.177C21 11.9094 19.8962 13 18.1428 13C16.3895 13 15.2857 11.9094 15.2857 10.177C15.2857 8.3179 17.3339 5.80817 17.9621 5.08223C17.9844 5.05643 18.0122 5.03573 18.0434 5.02153C18.0746 5.00734 18.1086 4.99998 18.1429 4.99998C18.1773 4.99998 18.2113 5.00734 18.2425 5.02153C18.2737 5.03573 18.3014 5.05643 18.3238 5.08223C18.9518 5.80817 21 8.3179 21 10.177Z" fill="white" stroke="#91A5B0" stroke-width="1.8" stroke-miterlimit="10"/>
</svg>
