<svg width="19" height="16" viewBox="0 0 19 16" fill="none" xmlns="http://www.w3.org/2000/svg">
<path d="M11.7493 6.99193L10.0005 9.77037C9.92897 9.86948 9.84195 9.95646 9.7428 10.028C9.50342 10.1949 9.20785 10.2607 8.92022 10.2112C8.6326 10.1616 8.37613 10.0007 8.20649 9.76325C8.03684 9.52585 7.96771 9.23115 8.01409 8.94311C8.06047 8.65508 8.21863 8.39695 8.45423 8.22475L11.2339 6.47672C11.297 6.43269 11.3722 6.40909 11.4492 6.40909C11.5263 6.40909 11.6014 6.43269 11.6646 6.47672C11.744 6.53398 11.7974 6.62032 11.8133 6.71686C11.8291 6.8134 11.8061 6.91229 11.7493 6.99193Z" fill="#91A5B0"/>
<path d="M9.11364 1C4.63303 1 1.00001 4.65314 1.00001 9.16306C0.997259 11.1584 1.723 13.0852 3.03928 14.5772C3.07913 14.6209 3.11535 14.6647 3.15519 14.7048C3.24091 14.7982 3.34496 14.8726 3.46075 14.9235C3.57655 14.9743 3.70157 15.0003 3.8279 15C3.95422 14.9997 4.0791 14.9729 4.19462 14.9215C4.31015 14.87 4.4138 14.795 4.49901 14.7011C5.08634 14.0587 5.7997 13.5458 6.594 13.195C7.38829 12.8443 8.24625 12.6631 9.11364 12.6631C9.98102 12.6631 10.839 12.8443 11.6333 13.195C12.4276 13.5458 13.1409 14.0587 13.7283 14.7011C13.8135 14.795 13.9171 14.87 14.0326 14.9215C14.1482 14.9729 14.2731 14.9997 14.3994 15C14.5257 15.0003 14.6507 14.9743 14.7665 14.9235C14.8823 14.8726 14.9864 14.7982 15.0721 14.7048L15.188 14.5772C16.5043 13.0852 17.23 11.1584 17.2273 9.16306C17.2273 4.65314 13.5942 1 9.11364 1Z" stroke="#91A5B0" stroke-width="1.8" stroke-linecap="round" stroke-linejoin="round"/>
<path d="M9.11363 3.22726V4.43636M15 9.27272H13.8227M4.40454 9.27272H3.22726M5.78379 5.85288L4.95123 4.99783M12.4435 5.85288L13.276 4.99783" stroke="#91A5B0" stroke-width="1.8" stroke-miterlimit="10" stroke-linecap="round"/>
</svg>
