<svg width="18" height="26" viewBox="0 0 18 26" fill="none" xmlns="http://www.w3.org/2000/svg">
<path d="M10 7.76549C10 10.3641 8.45472 12 6 12C3.54528 12 2 10.3641 2 7.76549C2 4.97688 4.8675 1.21228 5.74694 0.123362C5.77824 0.0846736 5.81707 0.0536153 5.86078 0.0323207C5.90448 0.0110261 5.95203 0 6.00014 0C6.04825 0 6.09579 0.0110261 6.1395 0.0323207C6.18321 0.0536153 6.22204 0.0846736 6.25333 0.123362C7.1325 1.21228 10 4.97688 10 7.76549Z" fill="#91A5B0"/>
<path d="M18 15.7655C18 18.3641 16.4547 20 14 20C11.5453 20 10 18.3641 10 15.7655C10 12.9769 12.8675 9.21228 13.7469 8.12336C13.7782 8.08467 13.8171 8.05362 13.8608 8.03232C13.9045 8.01103 13.952 8 14.0001 8C14.0483 8 14.0958 8.01103 14.1395 8.03232C14.1832 8.05362 14.222 8.08467 14.2533 8.12336C15.1325 9.21228 18 12.9769 18 15.7655Z" fill="#91A5B0"/>
<path d="M8 21.7655C8 24.3641 6.45472 26 4 26C1.54528 26 0 24.3641 0 21.7655C0 18.9769 2.8675 15.2123 3.74694 14.1234C3.77824 14.0847 3.81707 14.0536 3.86078 14.0323C3.90448 14.011 3.95203 14 4.00014 14C4.04825 14 4.09579 14.011 4.1395 14.0323C4.18321 14.0536 4.22204 14.0847 4.25333 14.1234C5.1325 15.2123 8 18.9769 8 21.7655Z" fill="#91A5B0"/>
</svg>
