<svg width="21" height="15" viewBox="0 0 21 15" fill="none" xmlns="http://www.w3.org/2000/svg">
<path d="M10.4868 2C7.52936 2 4.49567 3.71169 2.10742 7.13507C2.03925 7.23387 2.00189 7.35065 2.00007 7.47066C1.99825 7.59068 2.03204 7.70854 2.09718 7.80935C3.93219 10.6818 6.92527 12.9281 10.4868 12.9281C14.0096 12.9281 17.0641 10.6749 18.9026 7.79607C18.9662 7.69723 19 7.58217 19 7.46463C19 7.34708 18.9662 7.23202 18.9026 7.13318C17.06 4.28731 13.983 2 10.4868 2Z" fill="#91A5B0" stroke="#91A5B0" stroke-width="3" stroke-linecap="round" stroke-linejoin="round"/>
<path d="M10.4756 10.4512C12.1521 10.4512 13.5112 9.0921 13.5112 7.41559C13.5112 5.73908 12.1521 4.38 10.4756 4.38C8.79908 4.38 7.44 5.73908 7.44 7.41559C7.44 9.0921 8.79908 10.4512 10.4756 10.4512Z" fill="#91A5B0" stroke="white" stroke-width="3" stroke-miterlimit="10"/>
</svg>
